<svg width="24" height="24" viewBox="0 0 24 24" fill="none" xmlns="http://www.w3.org/2000/svg">
<path d="M4.38238 -0.00012207C1.9548 -0.00012207 0.00012207 1.95456 0.00012207 4.38213V19.6176C0.00012207 22.0452 1.9548 23.9999 4.38238 23.9999H12.6399V14.6174H10.1589V11.2394H12.6399V8.35339C12.6399 6.08599 14.1058 4.00413 17.4826 4.00413C18.8499 4.00413 19.8609 4.13539 19.8609 4.13539L19.7814 7.2899C19.7814 7.2899 18.7503 7.28016 17.6251 7.28016C16.4074 7.28016 16.2121 7.84123 16.2121 8.77267V11.2394H19.8781L19.7184 14.6174H16.2121V23.9999H19.6179C22.0454 23.9999 24.0001 22.0452 24.0001 19.6177V4.38216C24.0001 1.95458 22.0454 -9.80703e-05 19.6179 -9.80703e-05H4.38235L4.38238 -0.00012207Z" fill="black"/>
</svg>
