<svg width="24" height="24" viewBox="0 0 24 24" fill="none" xmlns="http://www.w3.org/2000/svg">
<path d="M11.9969 7.99802C9.79345 7.99802 7.99527 9.7962 7.99527 11.9996C7.99527 14.2031 9.79345 16.0013 11.9969 16.0013C14.2003 16.0013 15.9985 14.2031 15.9985 11.9996C15.9985 9.7962 14.2003 7.99802 11.9969 7.99802ZM23.9988 11.9996C23.9988 10.3426 24.0138 8.70048 23.9207 7.04639C23.8277 5.12513 23.3894 3.42001 21.9845 2.01509C20.5765 0.607168 18.8744 0.171883 16.9532 0.078822C15.2961 -0.014239 13.654 0.000770848 11.9999 0.000770848C10.3428 0.000770848 8.70073 -0.014239 7.04664 0.078822C5.12538 0.171883 3.42026 0.61017 2.01534 2.01509C0.607413 3.42302 0.172127 5.12513 0.0790662 7.04639C-0.0139949 8.70348 0.00101499 10.3456 0.00101499 11.9996C0.00101499 13.6537 -0.0139949 15.2988 0.0790662 16.9529C0.172127 18.8742 0.610415 20.5793 2.01534 21.9842C3.42326 23.3921 5.12538 23.8274 7.04664 23.9205C8.70373 24.0135 10.3458 23.9985 11.9999 23.9985C13.657 23.9985 15.2991 24.0135 16.9532 23.9205C18.8744 23.8274 20.5795 23.3891 21.9845 21.9842C23.3924 20.5763 23.8277 18.8742 23.9207 16.9529C24.0168 15.2988 23.9988 13.6567 23.9988 11.9996ZM11.9969 18.1567C8.58966 18.1567 5.83985 15.4069 5.83985 11.9996C5.83985 8.59241 8.58966 5.8426 11.9969 5.8426C15.4041 5.8426 18.1539 8.59241 18.1539 11.9996C18.1539 15.4069 15.4041 18.1567 11.9969 18.1567ZM18.4061 7.02838C17.6106 7.02838 16.9682 6.38596 16.9682 5.59044C16.9682 4.79492 17.6106 4.15249 18.4061 4.15249C19.2016 4.15249 19.8441 4.79492 19.8441 5.59044C19.8443 5.77934 19.8073 5.96643 19.7351 6.14099C19.6629 6.31556 19.557 6.47417 19.4234 6.60775C19.2898 6.74132 19.1312 6.84723 18.9567 6.91941C18.7821 6.99159 18.595 7.02862 18.4061 7.02838Z" fill="black"/>
</svg>
