<svg width="24" height="24" viewBox="0 0 24 24" fill="none" xmlns="http://www.w3.org/2000/svg">
<path d="M4.7057 0.00585938C2.12048 0.00585938 0.00463867 2.12165 0.00463867 4.70691V19.2951C0.00463867 21.8803 2.12043 23.9954 4.7057 23.9954H19.2939C21.8791 23.9954 23.9942 21.8803 23.9942 19.2951V4.70691C23.9942 2.1217 21.8791 0.00585938 19.2939 0.00585938H4.7057ZM5.88808 3.96461C7.12764 3.96461 7.89115 4.77836 7.91472 5.84801C7.91472 6.89405 7.12759 7.73067 5.86411 7.73067H5.84085C4.62489 7.73067 3.83896 6.8941 3.83896 5.84801C3.83896 4.77838 4.64867 3.96461 5.88806 3.96461H5.88808ZM16.57 8.96405C18.9539 8.96405 20.741 10.5222 20.741 13.8705V20.1213H17.1181V14.2896C17.1181 12.8242 16.5938 11.8244 15.2827 11.8244C14.2818 11.8244 13.6852 12.4982 13.4233 13.1492C13.3276 13.3821 13.304 13.7074 13.304 14.0332V20.1213H9.68117C9.68117 20.1213 9.72871 10.2426 9.68117 9.2197H13.3048V10.7635C13.7862 10.0207 14.6474 8.96403 16.57 8.96403V8.96405ZM4.05266 9.22049H7.67553V20.1213H4.05266V9.22049Z" fill="black"/>
</svg>
