<svg width="24" height="24" viewBox="0 0 24 24" fill="none" xmlns="http://www.w3.org/2000/svg">
<path d="M20.0001 7.53113C19.4168 7.79154 18.7866 7.96863 18.1095 8.06238C18.8178 7.64571 19.3022 7.03634 19.5626 6.23425C18.8855 6.63009 18.1876 6.89571 17.4689 7.03113C16.8335 6.34363 16.0366 5.99988 15.0782 5.99988C14.172 5.99988 13.3986 6.32019 12.7579 6.96082C12.1173 7.60144 11.797 8.37488 11.797 9.28113C11.797 9.58321 11.823 9.83321 11.8751 10.0311C10.5314 9.95821 9.27096 9.61967 8.09387 9.0155C6.91679 8.41134 5.91679 7.60404 5.09387 6.59363C4.79179 7.11446 4.64075 7.66654 4.64075 8.24988C4.64075 9.43738 5.11471 10.3488 6.06262 10.9843C5.57304 10.9738 5.05221 10.8384 4.50012 10.578V10.6093C4.50012 11.3905 4.76054 12.0858 5.28137 12.6952C5.80221 13.3046 6.44283 13.6822 7.20325 13.828C6.90116 13.9113 6.63554 13.953 6.40637 13.953C6.27096 13.953 6.06783 13.9322 5.797 13.8905C6.01575 14.5468 6.40377 15.0884 6.96106 15.5155C7.51835 15.9426 8.15116 16.1613 8.8595 16.1718C7.65116 17.1093 6.29179 17.578 4.78137 17.578C4.51054 17.578 4.25012 17.5624 4.00012 17.5311C5.54179 18.5103 7.21887 18.9999 9.03137 18.9999C10.198 18.9999 11.2918 18.815 12.3126 18.4452C13.3335 18.0754 14.2085 17.5806 14.9376 16.9608C15.6668 16.341 16.2944 15.6275 16.8204 14.8202C17.3465 14.0129 17.7371 13.1691 17.9923 12.2889C18.2475 11.4087 18.3751 10.5311 18.3751 9.65613C18.3751 9.46863 18.3699 9.328 18.3595 9.23425C19.0157 8.7655 19.5626 8.19779 20.0001 7.53113ZM24.0001 4.49988V19.4999C24.0001 20.7395 23.56 21.7994 22.6798 22.6796C21.7996 23.5598 20.7397 23.9999 19.5001 23.9999H4.50012C3.26054 23.9999 2.20064 23.5598 1.32043 22.6796C0.440226 21.7994 0.00012207 20.7395 0.00012207 19.4999V4.49988C0.00012207 3.26029 0.440226 2.2004 1.32043 1.32019C2.20064 0.439982 3.26054 -0.00012207 4.50012 -0.00012207H19.5001C20.7397 -0.00012207 21.7996 0.439982 22.6798 1.32019C23.56 2.2004 24.0001 3.26029 24.0001 4.49988Z" fill="black"/>
</svg>
