<svg width="286" height="317" viewBox="0 0 286 317" fill="none" xmlns="http://www.w3.org/2000/svg">
<path d="M167.074 -86.77C136.006 -104.035 101.042 -113.075 65.4999 -113.031C-50.2172 -113.031 -144.031 -19.2171 -144.031 96.5C-144.075 132.037 -135.038 166.996 -117.777 198.06L-133.129 213.418C-140.105 220.408 -144.024 229.881 -144.024 239.757C-144.024 249.632 -140.105 259.105 -133.129 266.095L-104.102 295.136C-97.1107 302.113 -87.6371 306.031 -77.7601 306.031C-67.8831 306.031 -58.4095 302.113 -51.4185 295.136L-36.0599 279.777C-4.99627 297.038 29.9627 306.075 65.4999 306.031C181.217 306.031 275.031 212.231 275.031 96.5C275.076 60.9618 266.036 26.002 248.77 -5.05977L264.128 -20.4184C271.106 -27.4094 275.024 -36.883 275.024 -46.76C275.024 -56.637 271.106 -66.1105 264.128 -73.1015L235.101 -102.129C228.11 -109.106 218.637 -113.024 208.76 -113.024C198.883 -113.024 189.409 -109.106 182.418 -102.129L167.074 -86.77ZM-73.3704 273.191C-74.5378 274.352 -76.1172 275.003 -77.7636 275.003C-79.41 275.003 -80.9894 274.352 -82.1568 273.191L-111.198 244.15C-112.36 242.984 -113.013 241.406 -113.013 239.76C-113.013 238.114 -112.36 236.536 -111.198 235.37L-100.33 224.51C-89.379 238.67 -76.6701 251.379 -62.5097 262.33L-73.3704 273.191ZM229.2 96.5C229.2 186.899 155.913 260.193 65.4999 260.193C-24.9058 260.193 -98.1929 186.899 -98.1929 96.5C-98.1929 6.10127 -24.9059 -67.1997 65.4999 -67.1997C155.913 -67.1998 229.2 6.10126 229.2 96.5ZM213.157 -80.1977L242.198 -51.1427C243.358 -49.9777 244.009 -48.4006 244.009 -46.7565C244.009 -45.1124 243.358 -43.5353 242.198 -42.3703L231.323 -31.5096C220.378 -45.6709 207.671 -58.378 193.51 -69.323L204.37 -80.1977C205.538 -81.3586 207.117 -82.0103 208.763 -82.0103C210.41 -82.0103 211.989 -81.3586 213.157 -80.1977Z" stroke="#D66D0C" stroke-width="20"/>
<path d="M58.753 29.7084C99.6326 10.2849 113.273 1.22614 85.1679 -33.5351C57.0838 -68.2684 -10.8114 -84.3744 -78.7344 43.4676C-97.2011 78.2289 -62.2164 133.762 -32.7423 127.497C-3.25428 121.218 17.8874 49.0971 58.753 29.7084ZM24.8648 -33.7237C24.8648 -57.4426 37.8627 -19.1543 57.5726 3.67068C67.1273 14.7339 24.8648 9.41183 24.8648 -33.7237ZM-27.4551 -2.07047C-27.4551 -25.8034 -14.4782 12.4849 5.24569 35.3099C14.7863 46.3382 -27.4551 41.086 -27.4551 -2.07047ZM-61.5389 48.9574C-61.5389 25.2454 -48.541 63.5407 -28.859 86.3238C-19.3044 97.401 -61.5389 92.1068 -61.5389 48.9574ZM142.112 23.8485C162.275 52.1981 186.162 69.5892 195.493 62.7794C212.353 50.5149 212.353 50.5149 175.839 -0.792342C155.703 -29.1 131.789 -46.533 122.471 -39.7233C105.618 -27.4028 105.618 -27.4028 142.112 23.8485ZM132.871 22.8498C133.374 9.91472 121.375 17.9816 106.268 16.494C91.1535 15.0342 98.8992 27.3267 97.5512 50.4869C96.2032 73.6751 114.453 66.9351 129.037 65.9992C143.613 65.0563 131.635 56.1513 132.871 22.8498Z" stroke="#D66D0C" stroke-width="20"/>
<path d="M144.116 107.878C139.192 115.784 132.466 122.468 124.881 128.419C127.053 123.055 128.303 116.538 129.589 109.791C130.147 106.865 130.706 103.938 131.335 101.173C132.033 98.1483 132.354 95.8086 132.354 93.818C132.354 82.9643 123.149 81.777 117.638 81.0645C112.658 80.422 105.828 79.535 96.8109 75.065C92.0475 72.7182 88.4505 73.5284 86.2644 74.6249C80.4814 77.5025 79.1823 84.3193 77.5479 92.938C76.633 97.7432 75.5993 103.191 73.7275 108.611C72.3725 112.536 71.7439 115.63 71.7439 118.361C71.7439 128.824 80.5163 131.429 86.914 133.336C90.6227 134.439 94.8412 135.689 99.4649 138.155C101.728 139.381 104.181 140.217 106.722 140.627C80.0693 156.356 50.4975 167.412 43.6318 186.061C43.4782 186.494 43.4293 186.948 43.2966 187.381C42.6191 187.073 42.0114 186.878 41.306 186.529C36.5497 184.182 32.9457 184.992 30.7596 186.089C26.3315 188.296 24.5365 192.815 23.2025 198.674C16.7839 191.865 7.31307 182.855 -6.16677 170.073C-7.21443 169.075 -8.26208 168.139 -9.31672 167.182C-7.44491 167.915 -5.4823 168.788 -3.44286 169.885C3.65326 173.67 7.90674 171.582 10.7703 166.623C11.8529 170.108 13.606 172.616 16.1343 173.754C36.7662 183.043 36.7662 183.043 65.4859 121.483C81.3405 87.5181 84.9514 55.7881 73.5738 50.6406C52.8931 41.3374 52.8931 41.3374 24.2013 102.912C20.5982 110.591 17.5135 118.504 14.9679 126.596C10.0649 125.422 0.887452 125.855 -12.5016 119.199C-21.9445 114.548 -19.8701 131.296 -25.8697 148.757C-26.4284 150.364 -26.7777 151.732 -27.0431 152.976C-45.2304 140.362 -61.2805 135.27 -67.0915 141.521C-81.5421 157.11 -81.5421 157.11 -35.0472 201.245C-15.7842 219.544 4.26788 231.145 16.4975 232.206C17.7687 240.637 25.5423 243.039 31.4022 244.785C35.1179 245.889 39.3295 247.139 43.9601 249.604C49.9317 252.789 55.3656 253.25 60.115 250.973C64.585 248.829 67.4136 244.785 69.4391 239.715C81.1449 247.258 94.9251 250.582 107.581 245.435C229.668 195.811 228.019 124.375 203.183 90.5982C178.353 56.8008 168.121 69.2959 144.116 107.878ZM116.297 226.395C79.1823 219.886 82.2345 176.157 90.0081 187.534C106.1 210.995 136.678 230.006 116.297 226.395ZM132.683 163.767C148.768 187.227 179.324 206.218 158.972 202.628C121.822 196.097 124.881 152.375 132.683 163.767ZM163.896 121.574C179.981 145.034 210.551 164.011 190.199 160.435C153.063 153.891 156.122 110.196 163.896 121.574Z" stroke="#D66D0C" stroke-width="20"/>
</svg>
