<svg width="68" height="61" viewBox="0 0 68 61" fill="none" xmlns="http://www.w3.org/2000/svg">
<path d="M2.99341 25.7516C5.89036 14.6033 13.9271 4.81808 29.5208 1.17283L30.052 1.05506C30.5777 0.938458 31.1276 1.00637 31.6093 1.24737L31.6096 1.24752L65.0631 17.9743L65.0633 17.9744C65.4528 18.169 65.7804 18.4683 66.0095 18.8386L66.86 18.3125L66.0095 18.8386C66.2386 19.2089 66.36 19.6357 66.3603 20.0711V33.452C66.3603 34.074 66.1132 34.6706 65.6733 35.1104C65.2335 35.5502 64.6369 35.7973 64.0149 35.7973C63.2761 35.7973 62.1119 36.0379 61.2031 36.6913L61.2009 36.6929C60.8449 36.9504 60.4429 37.3258 60.1396 37.915C59.8394 38.4983 59.6696 39.2257 59.6696 40.1427C59.6696 41.0597 59.8394 41.7871 60.1396 42.3704C60.4429 42.9596 60.8449 43.335 61.2008 43.5925L61.2057 43.5959C62.1114 44.2429 63.2732 44.488 64.0149 44.488C64.6369 44.488 65.2335 44.7351 65.6733 45.175C66.1132 45.6148 66.3603 46.2114 66.3603 46.8334V56.8694C66.3603 57.4915 66.1132 58.088 65.6733 58.5279C65.2335 58.9677 64.6369 59.2148 64.0149 59.2148H8.81715C8.38171 59.2146 7.95493 59.0931 7.58461 58.864C7.21429 58.635 6.91505 58.3073 6.72041 57.9178L6.72024 57.9175C2.32697 49.1342 0.106801 36.8442 2.99333 25.7519L2.99341 25.7516ZM17.4527 46.5607C18.2676 47.3756 19.3729 47.8334 20.5253 47.8334H20.5287C21.6812 47.8334 22.7864 47.3756 23.6013 46.5607C24.4162 45.7458 24.874 44.6405 24.874 43.488C24.874 42.3356 24.4162 41.2303 23.6013 40.4154C22.7864 39.6005 21.6812 39.1427 20.5287 39.1427H20.5253C19.3729 39.1427 18.2676 39.6005 17.4527 40.4154C16.6378 41.2303 16.18 42.3356 16.18 43.488C16.18 44.6405 16.6378 45.7458 17.4527 46.5607ZM32.9068 33.452C32.9068 34.6045 33.3646 35.7097 34.1795 36.5246C34.9944 37.3395 36.0996 37.7973 37.2521 37.7973H37.2555C38.4079 37.7973 39.5132 37.3395 40.3281 36.5246C41.143 35.7097 41.6008 34.6045 41.6008 33.452C41.6008 32.2995 41.143 31.1943 40.3281 30.3794C39.5132 29.5645 38.4079 29.1066 37.2555 29.1066H37.2521C36.0996 29.1066 34.9944 29.5645 34.1795 30.3794C33.3646 31.1943 32.9068 32.2995 32.9068 33.452ZM40.8702 46.5607C41.6851 47.3756 42.7904 47.8334 43.9428 47.8334H43.9462C45.0986 47.8334 46.2039 47.3756 47.0188 46.5607C47.8337 45.7458 48.2915 44.6405 48.2915 43.488C48.2915 42.3356 47.8337 41.2303 47.0188 40.4154C46.2039 39.6005 45.0986 39.1427 43.9462 39.1427H43.9428C42.7903 39.1427 41.6851 39.6005 40.8702 40.4154C40.0553 41.2303 39.5975 42.3356 39.5975 43.488C39.5975 44.6405 40.0553 45.7458 40.8702 46.5607Z" stroke="black" stroke-width="2"/>
</svg>
