<svg width="231" height="315" viewBox="0 0 231 315" fill="none" xmlns="http://www.w3.org/2000/svg">
<path opacity="0.3" d="M135.003 168.631C127.973 180.807 112.202 185.033 100.025 178.003C87.8487 170.973 83.6228 155.202 90.6529 143.025C97.683 130.849 113.454 126.623 125.631 133.653C137.807 140.683 142.033 156.454 135.003 168.631ZM13.5648 98.5184C20.5948 86.342 36.3661 82.1161 48.5425 89.1462C60.719 96.1763 64.9449 111.947 57.9148 124.124C50.8847 136.3 35.1135 140.526 22.937 133.496C10.7606 126.466 6.53467 110.695 13.5648 98.5184ZM167.741 187.532C174.771 175.356 190.542 171.13 202.719 178.16C214.895 185.19 219.121 200.961 212.091 213.138C205.061 225.314 189.29 229.54 177.113 222.51C164.937 215.48 160.711 199.709 167.741 187.532ZM164.803 103.608C171.833 91.4317 187.604 87.2059 199.78 94.236C211.957 101.266 216.183 117.037 209.153 129.214C202.122 141.39 186.351 145.616 174.175 138.586C161.998 131.556 157.772 115.785 164.803 103.608ZM87.7143 59.1013C94.7444 46.9249 110.516 42.699 122.692 49.7291C134.869 56.7592 139.094 72.5304 132.064 84.7068C125.034 96.8833 109.263 101.109 97.0866 94.0791C84.9101 87.049 80.6843 71.2778 87.7143 59.1013ZM93.5915 226.949C100.622 214.773 116.393 210.547 128.569 217.577C140.746 224.607 144.972 240.378 137.942 252.555C130.911 264.731 115.14 268.957 102.964 261.927C90.7873 254.897 86.5614 239.126 93.5915 226.949ZM16.5033 182.442C23.5334 170.266 39.3046 166.04 51.4811 173.07C63.6576 180.1 67.8835 195.871 60.8534 208.048C53.8233 220.224 38.0521 224.45 25.8756 217.42C13.6991 210.39 9.47326 194.619 16.5033 182.442ZM19.4419 266.366C26.472 254.19 42.2432 249.964 54.4197 256.994C66.5962 264.024 70.8221 279.795 63.792 291.972C56.7619 304.148 40.9907 308.374 28.8142 301.344C16.6377 294.314 12.4118 278.543 19.4419 266.366ZM186.777 31.7563C198.438 20.8141 211.994 12.132 226.038 10.5179L226.422 16.4683C222.087 17.2865 217.962 18.804 214.156 20.6752C206.905 24.24 200.194 29.3828 194.368 34.6997C186.349 42.0193 179.395 50.25 174.443 56.5134L168.178 52.8963C172.427 47.1073 178.827 39.2166 186.777 31.7563Z" stroke="#80B918" stroke-width="20"/>
</svg>
