<svg width="68" height="68" viewBox="0 0 68 68" fill="none" xmlns="http://www.w3.org/2000/svg">
<path d="M56.7736 4.58936L56.7657 4.58415C50.3988 0.37121 41.8615 0.337745 35.4264 4.49043L35.4245 4.49168C29.826 8.08618 26.7523 13.6716 26.2132 19.4432L26.2127 19.4482C25.7611 24.0336 24.0175 28.3645 20.758 31.6239C20.758 31.624 20.758 31.624 20.758 31.624L20.658 31.724L20.658 31.724C17.1637 35.2182 17.2008 40.4822 20.4214 43.6732L20.4246 43.6764L23.7244 46.9762C23.7245 46.9763 23.7246 46.9763 23.7246 46.9764C25.2835 48.5341 27.3971 49.4092 29.6009 49.4092C31.8046 49.4092 33.9182 48.5341 35.4771 46.9764C38.8997 43.5538 43.3925 41.7094 48.2094 41.1894M56.7736 4.58936L48.2102 41.1893C48.21 41.1893 48.2097 41.1894 48.2094 41.1894M56.7736 4.58936L56.7816 4.59443C59.2999 6.19318 61.4266 8.33762 63.0043 10.8691C64.5821 13.4006 65.5705 16.2545 65.8966 19.2195C66.2227 22.1846 65.878 25.185 64.8881 27.9989C63.8983 30.8123 62.2888 33.3673 60.1786 35.4749M56.7736 4.58936L60.1786 35.4749M48.2094 41.1894C52.5585 40.7131 56.812 38.8089 60.1786 35.4749M48.2094 41.1894C48.2092 41.1894 48.2089 41.1894 48.2087 41.1895L60.1786 35.4749M13.8509 59.236L13.3385 59.7382L13.6501 60.3845C14.3746 61.8872 14.1272 63.6862 12.8847 64.9022L12.8782 64.9086L12.8718 64.9151C12.3299 65.4651 11.6392 65.8451 10.8845 66.0083C10.1298 66.1715 9.34383 66.1109 8.62306 65.8339C7.90228 65.5569 7.27802 65.0756 6.82686 64.4489C6.3757 63.8223 6.11725 63.0775 6.08322 62.3061L6.04287 61.3915L5.12827 61.3512C4.35685 61.3171 3.61213 61.0587 2.98547 60.6075L2.40761 61.4102L2.98547 60.6075C2.35881 60.1564 1.87745 59.5321 1.60045 58.8113C1.32344 58.0906 1.26284 57.3046 1.42606 56.5499C1.58928 55.7952 1.96923 55.1045 2.51933 54.5626L2.52463 54.5573C3.7523 53.3296 5.59007 53.0677 7.04352 53.7812L7.67867 54.093L8.18406 53.5978L14.638 47.2739C15.113 46.8086 15.9874 46.8009 16.6438 47.4573L19.9438 50.7573L19.9524 50.7659L19.9612 50.7743C20.6783 51.4573 20.6844 52.5392 20.16 53.0531L13.8509 59.236Z" stroke="black" stroke-width="2"/>
</svg>
