<svg width="231" height="315" viewBox="0 0 231 315" fill="none" xmlns="http://www.w3.org/2000/svg">
<path opacity="0.3" d="M135.003 168.631C127.973 180.807 112.202 185.033 100.025 178.003C87.8486 170.973 83.6227 155.202 90.6528 143.025C97.6829 130.849 113.454 126.623 125.631 133.653C137.807 140.683 142.033 156.454 135.003 168.631ZM13.5646 98.5185C20.5947 86.342 36.3659 82.1161 48.5424 89.1462C60.7189 96.1763 64.9448 111.948 57.9147 124.124C50.8846 136.3 35.1134 140.526 22.9369 133.496C10.7604 126.466 6.53455 110.695 13.5646 98.5185ZM167.741 187.532C174.771 175.356 190.542 171.13 202.719 178.16C214.895 185.19 219.121 200.961 212.091 213.138C205.061 225.314 189.29 229.54 177.113 222.51C164.937 215.48 160.711 199.709 167.741 187.532ZM164.802 103.608C171.832 91.4318 187.604 87.2059 199.78 94.236C211.957 101.266 216.183 117.037 209.152 129.214C202.122 141.39 186.351 145.616 174.175 138.586C161.998 131.556 157.772 115.785 164.802 103.608ZM87.7142 59.1014C94.7443 46.9249 110.516 42.699 122.692 49.7291C134.868 56.7592 139.094 72.5304 132.064 84.7069C125.034 96.8834 109.263 101.109 97.0865 94.0792C84.91 87.0491 80.6841 71.2779 87.7142 59.1014ZM93.5914 226.949C100.621 214.773 116.393 210.547 128.569 217.577C140.746 224.607 144.972 240.378 137.941 252.555C130.911 264.731 115.14 268.957 102.964 261.927C90.7872 254.897 86.5613 239.126 93.5914 226.949ZM16.5032 182.442C23.5333 170.266 39.3045 166.04 51.481 173.07C63.6575 180.1 67.8833 195.871 60.8533 208.048C53.8232 220.224 38.052 224.45 25.8755 217.42C13.699 210.39 9.47314 194.619 16.5032 182.442ZM19.4418 266.366C26.4719 254.19 42.2431 249.964 54.4196 256.994C66.5961 264.024 70.8219 279.795 63.7918 291.972C56.7618 304.148 40.9905 308.374 28.8141 301.344C16.6376 294.314 12.4117 278.543 19.4418 266.366ZM186.777 31.7564C198.438 20.8142 211.994 12.132 226.038 10.5179L226.422 16.4684C222.087 17.2865 217.962 18.8041 214.156 20.6753C206.905 24.2401 200.193 29.3828 194.368 34.6998C186.349 42.0194 179.394 50.2501 174.443 56.5134L168.178 52.8963C172.426 47.1073 178.827 39.2166 186.777 31.7564Z" stroke="#80B918" stroke-width="20"/>
</svg>
