<svg width="69" height="73" viewBox="0 0 69 73" fill="none" xmlns="http://www.w3.org/2000/svg">
<path d="M2.66922 70.9769L2.66433 70.9726C2.41427 70.7503 2.17833 70.3624 2.01987 69.7199C1.86179 69.0788 1.7974 68.2486 1.84093 67.2321C1.928 65.1986 2.43882 62.5778 3.29664 59.5692C4.90921 53.9136 7.7006 47.0498 10.9602 40.4722C14.1593 43.5642 17.8107 46.7596 20.9563 48.906L20.9563 48.9061L20.9653 48.912C22.2417 49.763 23.9841 49.4754 24.8657 48.1641C25.7357 46.9104 25.4208 45.1739 24.1734 44.3008L24.1663 44.2958L24.1591 44.2909C20.9696 42.1399 16.9638 38.583 13.6738 35.302C15.0578 32.7688 16.5112 30.348 17.9508 28.1434C21.4579 31.6848 25.9073 35.7013 29.6338 38.2243C30.8866 39.0954 32.6225 38.7818 33.4966 37.4976C34.4464 36.2048 34.0242 34.4683 32.8134 33.6208L32.8051 33.6149L32.7966 33.6093C29.2091 31.2052 24.6645 27.0836 21.1904 23.4837C23.2948 20.7378 25.2566 18.7116 26.919 17.655C28.8916 16.5133 31.5138 16.4338 34.4911 17.2818C37.4637 18.1284 40.6615 19.8675 43.63 22.1524L44.5453 22.8569L45.1115 21.8503C46.1672 19.9736 46.1419 18.2553 45.4491 16.7061C44.7941 15.2414 43.5663 13.9855 42.3681 12.88C42.0021 12.5424 41.6401 12.2194 41.2872 11.9047C40.4268 11.1371 39.6213 10.4185 38.9484 9.65629C38.013 8.59681 37.531 7.65834 37.5595 6.71006L37.5596 6.70726C37.6097 4.87156 38.6836 3.23488 40.1567 2.44673C41.5748 1.68804 43.4146 1.68661 45.1815 3.23257L45.1828 3.23377C46.5061 4.38737 47.3738 6.37812 47.9249 8.57804C48.4679 10.7449 48.6634 12.9435 48.7624 14.3502L50.699 14.6238C50.9127 14.0401 51.1234 13.4311 51.3384 12.81C51.9803 10.9551 52.6594 8.99254 53.5645 7.27651C54.7746 4.9821 56.2073 3.49409 58.1149 3.27338L58.1187 3.27293C59.5661 3.09987 61.3798 3.85069 62.8695 5.19692C64.3613 6.54512 65.263 8.24946 65.2009 9.67656L65.2005 9.68668C65.1385 11.5476 63.5175 13.3491 61.1264 14.8774C58.8038 16.3619 56.0885 17.3712 54.5257 17.7478L54.6495 19.7139C55.3088 19.7871 55.9921 19.8491 56.6875 19.9123C58.5618 20.0824 60.5248 20.2605 62.3462 20.6885C64.8398 21.2744 66.7009 22.2553 67.538 23.9919C67.9601 24.8823 67.9269 26.1804 67.4385 27.4842C66.9524 28.7821 66.0971 29.8612 65.1731 30.3557C64.2874 30.8169 63.3377 30.6819 62.1132 29.9876C61.0298 29.3734 59.9214 28.4296 58.6978 27.3878C58.5001 27.2195 58.2995 27.0486 58.0954 26.8762C56.6871 25.686 55.119 24.4241 53.4539 23.7631C51.7142 23.0724 49.8273 23.0239 47.9265 24.2871L46.9236 24.9536L47.7629 25.817C50.4783 28.6106 52.6273 31.7184 53.7503 34.6706C54.876 37.6296 54.9259 40.2924 53.6988 42.3717C52.3086 44.7256 48.7986 48.0354 44.06 51.6417C39.3633 55.2161 33.585 58.9896 27.8004 62.2808C22.0107 65.5751 16.2502 68.3659 11.5873 69.9933C9.25126 70.8087 7.23605 71.3157 5.65335 71.4637C4.01387 71.617 3.09546 71.3609 2.66922 70.9769Z" stroke="black" stroke-width="2"/>
</svg>
