<svg width="338" height="333" viewBox="0 0 338 333" fill="none" xmlns="http://www.w3.org/2000/svg">
<path opacity="0.2" d="M53.783 263.098C131.34 307.876 230.287 281.363 273.266 204.288L-5.02713 43.6158C-50.2867 119.374 -23.7739 218.321 53.783 263.098ZM220.964 210.589C223.857 221.384 218.589 230.508 207.794 233.4C197 236.293 187.876 231.025 184.984 220.23C182.091 209.436 187.359 200.312 198.153 197.42C208.948 194.527 218.072 199.795 220.964 210.589ZM149.003 229.871C151.895 240.666 146.627 249.79 135.833 252.682C125.039 255.575 115.914 250.307 113.022 239.512C110.13 228.718 115.398 219.594 126.192 216.702C136.986 213.809 146.111 219.077 149.003 229.871ZM129.721 157.91C132.613 168.704 127.345 177.829 116.551 180.721C105.757 183.613 96.6324 178.345 93.7401 167.551C90.8478 156.757 96.1157 147.632 106.91 144.74C117.704 141.848 126.828 147.116 129.721 157.91ZM57.7593 177.192C60.6516 187.986 55.3837 197.111 44.5894 200.003C33.7952 202.895 24.6709 197.627 21.7786 186.833C18.8863 176.039 24.1542 166.914 34.9484 164.022C45.7427 161.13 54.867 166.398 57.7593 177.192ZM2.49656 114.872C-0.395748 104.077 4.8722 94.953 15.6664 92.0607C26.4606 89.1684 35.585 94.4363 38.4773 105.231C41.3696 116.025 36.1017 125.149 25.3074 128.041C14.5132 130.934 5.38886 125.666 2.49656 114.872ZM24.8093 313.282C-80.1207 252.701 -115.792 119.572 -55.2111 14.6421L-23.2758 33.08C-73.3213 119.761 -43.9163 229.503 42.7651 279.548C129.446 329.593 239.188 300.188 289.233 213.507L323.449 233.262C262.386 336.393 129.257 372.065 24.8093 313.282Z" stroke="#EEEF20" stroke-width="20"/>
</svg>
