<svg width="65" height="63" viewBox="0 0 65 63" fill="none" xmlns="http://www.w3.org/2000/svg">
<path d="M17.2047 53.1195C17.1339 53 17.0167 52.9152 16.881 52.8856L9.07292 51.1821C8.34375 51.0362 7.76042 50.659 7.32292 50.0504C6.88542 49.4437 6.71528 48.7758 6.8125 48.0466L7.5937 40.0216C7.60703 39.8847 7.56333 39.7483 7.47288 39.6446L2.14584 33.5362C1.65973 33.0015 1.41667 32.3696 1.41667 31.6404C1.41667 30.9112 1.65973 30.2793 2.14584 29.7446L7.47288 23.6362C7.56333 23.5325 7.60703 23.3961 7.5937 23.2591L6.8125 15.2341C6.71528 14.505 6.88542 13.8371 7.32292 13.2304C7.76042 12.6218 8.34375 12.2446 9.07292 12.0987L16.881 10.3951C17.0167 10.3655 17.1339 10.2808 17.2047 10.1613L21.3229 3.20289C21.7118 2.57094 22.2465 2.15775 22.9271 1.96331C23.6076 1.76886 24.2882 1.79317 24.9688 2.03622L32.3573 5.16213C32.4818 5.21482 32.6224 5.21482 32.7469 5.16213L40.1354 2.03622C40.816 1.79317 41.4965 1.76886 42.1771 1.96331C42.8576 2.15775 43.3924 2.57094 43.7813 3.20289L47.8995 10.1613C47.9702 10.2808 48.0875 10.3655 48.2232 10.3951L56.0312 12.0987C56.7604 12.2446 57.3437 12.6218 57.7812 13.2304C58.2187 13.8371 58.3889 14.505 58.2917 15.2341L57.5105 23.2591C57.4971 23.3961 57.5408 23.5325 57.6313 23.6362L62.9583 29.7446C63.4444 30.2793 63.6875 30.9112 63.6875 31.6404C63.6875 32.3696 63.4444 33.0015 62.9583 33.5362L57.6313 39.6446C57.5408 39.7483 57.4971 39.8847 57.5105 40.0216L58.2917 48.0466C58.3889 48.7758 58.2187 49.4437 57.7812 50.0504C57.3437 50.659 56.7604 51.0362 56.0312 51.1821L48.2232 52.8856C48.0875 52.9152 47.9702 53 47.8995 53.1195L43.7813 60.0779C43.3924 60.7098 42.8576 61.123 42.1771 61.3175C41.4965 61.5119 40.816 61.4876 40.1354 61.2446L32.7469 58.1186C32.6224 58.066 32.4818 58.066 32.3573 58.1186L24.9688 61.2446C24.2882 61.4876 23.6076 61.5119 22.9271 61.3175C22.2465 61.123 21.7118 60.7098 21.3229 60.0779L17.2047 53.1195ZM27.4479 39.9529C27.9826 40.4876 28.6632 40.755 29.4896 40.755C30.316 40.755 30.9965 40.4876 31.5313 39.9529L43.9271 27.5571C44.5104 26.9737 44.8021 26.2805 44.8021 25.4775C44.8021 24.6764 44.5104 23.9841 43.9271 23.4008C43.3438 22.8175 42.6515 22.5258 41.8504 22.5258C41.0474 22.5258 40.3542 22.8175 39.7708 23.4008L29.8401 33.3316C29.646 33.5256 29.3318 33.527 29.1361 33.3346L25.2604 29.5258C24.6771 28.9911 23.9849 28.7354 23.1838 28.7587C22.3807 28.784 21.7118 29.064 21.1771 29.5987C20.6424 30.1334 20.375 30.814 20.375 31.6404C20.375 32.4668 20.6424 33.1473 21.1771 33.6821L27.4479 39.9529Z" stroke="#2B9348" stroke-width="2"/>
</svg>
