<svg width="61" height="54" viewBox="0 0 61 54" fill="none" xmlns="http://www.w3.org/2000/svg">
<path d="M51.6563 13.2917C51.1474 12.41 50.4165 11.6769 49.5364 11.1653C48.6563 10.6536 47.6577 10.3811 46.6397 10.375H39.5532C39.5526 10.375 39.5522 10.3746 39.5522 10.374V4.54167C39.5522 3.76812 39.2449 3.02625 38.6979 2.47927C38.1509 1.93229 37.4091 1.625 36.6355 1.625H7.46883C5.92174 1.625 4.438 2.23958 3.34404 3.33354C2.25008 4.42751 1.6355 5.91124 1.6355 7.45833V36.625C1.63655 37.6479 1.90658 38.6526 2.41851 39.5383C2.93044 40.4239 3.66626 41.1594 4.55217 41.6708C4.44774 44.3782 5.4231 47.0163 7.26369 49.0045C9.10429 50.9928 11.6593 52.1685 14.3668 52.2729C17.0742 52.3773 19.7122 51.402 21.7005 49.5614C23.6887 47.7208 24.8644 45.1657 24.9688 42.4583H34.0105C34.333 44.8987 35.5314 47.1387 37.3826 48.7613C39.2337 50.3839 41.6114 51.2784 44.073 51.2784C46.5346 51.2784 48.9123 50.3839 50.7635 48.7613C52.6146 47.1387 53.813 44.8987 54.1355 42.4583C55.6826 42.4583 57.1663 41.8437 58.2603 40.7498C59.3543 39.6558 59.9688 38.1721 59.9688 36.625V27.875C59.9643 27.3429 59.8237 26.8208 59.5605 26.3583L51.6563 13.2917ZM39.5522 16.2093C39.5522 16.2088 39.5526 16.2083 39.5532 16.2083H46.6391C46.6395 16.2083 46.6398 16.2085 46.64 16.2088L51.8888 24.9568C51.8892 24.9575 51.8887 24.9583 51.8879 24.9583H39.5532C39.5526 24.9583 39.5522 24.9579 39.5522 24.9573V16.2093ZM14.7605 45.375C13.8952 45.375 13.0493 45.1184 12.3299 44.6377C11.6104 44.1569 11.0497 43.4737 10.7185 42.6742C10.3874 41.8748 10.3008 40.9951 10.4696 40.1465C10.6384 39.2978 11.0551 38.5183 11.6669 37.9064C12.2788 37.2945 13.0583 36.8779 13.907 36.7091C14.7556 36.5402 15.6353 36.6269 16.4347 36.958C17.2342 37.2892 17.9175 37.8499 18.3982 38.5694C18.8789 39.2888 19.1355 40.1347 19.1355 41C19.1355 42.1603 18.6746 43.2731 17.8541 44.0936C17.0336 44.9141 15.9208 45.375 14.7605 45.375ZM43.9272 45.375C43.0619 45.375 42.216 45.1184 41.4966 44.6377C40.7771 44.1569 40.2163 43.4737 39.8852 42.6742C39.5541 41.8748 39.4674 40.9951 39.6362 40.1465C39.805 39.2978 40.2217 38.5183 40.8336 37.9064C41.4454 37.2945 42.225 36.8779 43.0737 36.7091C43.9223 36.5402 44.802 36.6269 45.6014 36.958C46.4008 37.2892 47.0841 37.8499 47.5649 38.5694C48.0456 39.2888 48.3022 40.1347 48.3022 41C48.3022 42.1603 47.8412 43.2731 47.0208 44.0936C46.2003 44.9141 45.0875 45.375 43.9272 45.375Z" stroke="#2B9348" stroke-width="2"/>
</svg>
