<svg width="70" height="64" viewBox="0 0 70 64" fill="none" xmlns="http://www.w3.org/2000/svg">
<path d="M11.6667 14.5H11.8611C12.7604 9.5084 16.6858 5.75 21.3889 5.75C23.1024 5.75 24.8038 6.31055 26.3594 7.28809C27.9757 3.77441 31.2448 1.375 35 1.375C38.7552 1.375 42.0243 3.77578 43.6406 7.28809C45.0868 6.31055 46.7882 5.75 48.6111 5.75C53.3143 5.75 57.1302 9.5084 58.1389 14.5H58.3333C62.6233 14.5 66.1111 18.4238 66.1111 23.25C66.1111 24.8496 65.7344 26.3398 65.066 27.625H4.92918C4.26807 26.3398 3.8889 24.8496 3.8889 23.25C3.8889 18.4238 7.37067 14.5 11.6667 14.5ZM1.94446 35.7461C1.94446 33.6816 3.43682 32 5.27797 32H64.7257C66.5608 32 68.0556 33.6816 68.0556 35.7461C68.0556 45.7129 62.2952 54.1758 54.3108 57.1289C54.3958 57.4844 54.4445 57.8672 54.4445 58.25C54.4445 60.6699 52.7066 62.625 50.5556 62.625H19.4445C17.2934 62.625 15.5556 60.6699 15.5556 58.25C15.5556 57.8672 15.6042 57.4844 15.6893 57.1289C7.70488 54.1758 1.94446 45.7129 1.94446 35.7461Z" stroke="#2B9348" stroke-width="2"/>
</svg>
